<svg height="512pt" viewBox="0 0 512.00019 512" width="512pt" xmlns="http://www.w3.org/2000/svg"><path d="m512 60v85c0 11.046875-8.957031 20-20 20-11.046875 0-20-8.953125-20-20v-76.714844l-122.859375 122.855469c-3.902344 3.90625-9.023437 5.859375-14.140625 5.859375s-10.238281-1.953125-14.140625-5.859375c-7.8125-7.808594-7.8125-20.472656 0-28.28125l122.855469-122.859375h-76.714844c-11.046875 0-20-8.953125-20-20 0-11.042969 8.953125-20 20-20h85c33.082031 0 60 26.917969 60 60zm-23.277344 300.511719c-27.933594-26.933594-51.335937-42.480469-73.648437-48.929688-30.746094-8.886719-59.226563-.804687-84.640625 24.015625-.039063.039063-.074219.074219-.113282.113282l-27.066406 26.863281c-16.8125-9.441407-49.492187-30.226563-85.234375-65.96875l-2.632812-2.632813c-35.507813-35.507812-56.421875-68.371094-65.9375-85.25l26.839843-27.042968c.039063-.039063.074219-.078126.113282-.113282 24.820312-25.417968 32.902344-53.894531 24.015625-84.640625-6.449219-22.3125-21.996094-45.714843-48.929688-73.648437-13.757812-14.261719-32.238281-22.511719-52.042969-23.2265628-19.804687-.7109372-38.828124 6.1796878-53.582031 19.4218748l-.574219.515625c-.265624.238281-.523437.484375-.777343.738281-29.359375 29.359376-44.75 70.460938-44.50781275 118.863282.41015575 82.21875 45.59765575 176.246094 120.87890575 251.527344.0625.066406.128907.128906.191407.191406 14.148437 14.128906 30.214843 28.113281 47.757812 41.5625 8.765625 6.71875 21.316407 5.0625 28.039063-3.703125s5.0625-21.320313-3.703125-28.039063c-16.234375-12.449218-31.039063-25.332031-44.003907-38.296875-.058593-.0625-.125-.125-.183593-.183593-67.886719-67.964844-108.621094-151.40625-108.980469-223.261719-.183594-37.273438 11.027344-68.386719 32.433594-90.011719l.152344-.140625c14.539062-13.046875 36.546874-12.253906 50.105468 1.808594 51.78125 53.699219 48.03125 79.046875 25.152344 102.511719l-37.074219 37.351562c-5.8125 5.859375-7.433593 14.6875-4.074219 22.226562.941407 2.113282 23.707032 52.429688 80.414063 109.132813l2.632813 2.628906c56.695312 56.699219 107.011718 79.464844 109.125 80.410157 7.539062 3.355468 16.367187 1.738281 22.226562-4.078126l37.34375-37.066406c23.464844-22.882812 48.816406-26.636718 102.519531 25.144532 14.0625 13.558593 14.855469 35.570312 1.808594 50.105468l-.140625.15625c-21.449219 21.230469-52.230469 32.433594-89.101562 32.433594-.304688 0-.609376 0-.910157-.003906-29.472656-.144532-63.601562-8.222656-98.691406-23.359375-10.144531-4.378907-21.910156.300781-26.285156 10.441406-4.375 10.144531.300781 21.910156 10.441406 26.285156 40.5625 17.496094 79.03125 26.457031 114.332031 26.632813.375.003906.75.003906 1.125.003906 47.914063 0 88.605469-15.378906 117.738282-44.511719.253906-.253906.5-.511719.738281-.78125l.519531-.574219c13.238281-14.75 20.132812-33.777343 19.417969-53.578124-.714844-19.804688-8.964844-38.289063-23.226563-52.042969zm0 0"/></svg>