<svg fill="#5d5c8c" viewBox="0 -22 511.99973 511"  xmlns="http://www.w3.org/2000/svg"><path d="m115.261719 237.171875-53.070313 53.066406c-8.792968 8.792969-8.792968 23.050781 0 31.84375 8.792969 8.789063 23.050782 8.789063 31.84375 0l53.066406-53.070312c8.792969-8.792969 8.792969-23.050781 0-31.839844-8.792968-8.792969-23.046874-8.792969-31.839843 0zm0 0"/><path d="m168.332031 290.238281-53.070312 53.070313c-8.792969 8.792968-8.792969 23.046875 0 31.839844 8.792969 8.792968 23.046875 8.792968 31.839843 0l53.070313-53.066407c8.792969-8.792969 8.792969-23.050781 0-31.84375s-23.046875-8.792969-31.839844 0zm0 0"/><path d="m221.398438 343.308594-53.066407 53.070312c-8.792969 8.792969-8.792969 23.046875 0 31.839844s23.046875 8.792969 31.839844 0l53.070313-53.070312c8.792968-8.792969 8.792968-23.046876 0-31.839844-8.792969-8.792969-23.050782-8.792969-31.84375 0zm0 0"/><path d="m242.625 460.058594c8.792969 8.792968 23.050781 8.792968 31.84375 0l31.839844-31.839844c8.792968-8.792969 8.792968-23.046875 0-31.839844-8.792969-8.792968-23.046875-8.792968-31.839844 0l-31.84375 31.839844c-8.789062 8.792969-8.789062 23.046875 0 31.839844zm0 0"/><path d="m407.140625 136.339844 82.363281 82.363281c32.691406-52.21875 31.242188-123.296875-14.183594-168.722656l-10.613281-10.613281c-53.222656-53.222657-143.222656-50.871094-195.546875 1.449218l-84.910156 84.910156c-5.941406 5.941407-5.941406 15.28125 0 21.226563 18.46875 18.46875 47.550781 21.230469 69.203125 6.792969l90.003906-59.863282c5.941407-5.941406 15.28125-5.941406 21.226563 0 4.882812 4.882813 10.613281 8.492188 17.195312 10.402344 15.496094 5.734375 33.75 2.335938 46.488282-10.402344 5.941406-5.941406 15.28125-5.941406 21.226562 0 5.945312 5.949219 5.945312 15.285157 0 21.230469-11.886719 11.886719-27.167969 19.101563-42.453125 21.226563zm0 0"/><path d="m66.5 50.429688-21.226562 21.226562c-52.757813 52.757812-63.371094 127.679688-10.617188 180.433594l11.617188 11.613281 47.761718-47.761719c20.480469-20.480468 53.8125-20.480468 74.296875 0 10.394531 10.398438 15.457031 24.109375 15.300781 37.769532 13.660157-.160157 27.367188 4.902343 37.765626 15.300781 1.730468 1.730469 110.390624 110.390625 106.136718 106.136719 8.792969 8.792968 23.050782 8.792968 31.84375 0 8.792969-8.792969 8.792969-23.050782 0-31.839844l-100.832031-100.832032c-5.863281-5.859374-5.863281-15.363281 0-21.226562s15.367187-5.863281 21.226563 0l100.832031 100.832031c8.792969 8.789063 23.050781 8.789063 31.839843 0 8.792969-8.796875 8.792969-23.050781 0-31.84375l-100.828124-100.828125c-5.863282-5.863281-5.863282-15.367187 0-21.230468 5.863281-5.863282 15.367187-5.859376 21.226562 0l100.832031 100.832031c8.792969 8.792969 23.046875 8.792969 31.839844 0s8.792969-23.050781 0-31.839844l-113.15625-113.15625-82.277344 54.726563c-34.226562 22.824218-79.828125 16.671874-107.058593-10.558594-17.617188-17.621094-17.617188-46.066406 0-63.683594l73.226562-73.226562c-53.035156-42.351563-120.628906-29.964844-169.75 19.15625zm0 0"/></svg>
